<svg xmlns="http://www.w3.org/2000/svg" xmlns:xlink="http://www.w3.org/1999/xlink" width="1080" zoomAndPan="magnify" viewBox="0 0 810 809.999993" height="1080" preserveAspectRatio="xMidYMid meet" version="1.0"><defs><g/><clipPath id="c60e82c2df"><path d="M 264.179688 340.707031 L 338.914062 340.707031 L 338.914062 432.957031 L 264.179688 432.957031 Z M 264.179688 340.707031 " clip-rule="nonzero"/></clipPath><clipPath id="8eab3b6c80"><path d="M 264.097656 342 L 338 342 L 338 432.957031 L 264.097656 432.957031 Z M 264.097656 342 " clip-rule="nonzero"/></clipPath></defs><rect x="-81" width="972" fill="#ffffff" y="-80.999999" height="971.999992" fill-opacity="1"/><rect x="-81" width="972" fill="#000000" y="-80.999999" height="971.999992" fill-opacity="1"/><g clip-path="url(#c60e82c2df)"><path fill="#ffffff" d="M 308.363281 419.878906 C 308.824219 418.933594 309.066406 418.46875 308.992188 418.097656 C 308.84375 417.230469 307.75 416.785156 306.660156 416.320312 C 305.804688 415.96875 304.621094 415.46875 304.25 415.894531 C 303.898438 416.304688 304.769531 417.042969 305.25 419.007812 C 305.621094 420.542969 305.417969 421.375 305.953125 421.636719 C 306.546875 421.914062 307.4375 421.210938 307.511719 421.136719 C 307.863281 420.875 308.046875 420.542969 308.363281 419.878906 Z M 312.324219 416.339844 C 312.085938 416.226562 311.269531 415.894531 310.621094 416.265625 C 309.9375 416.65625 309.84375 417.617188 309.769531 418.246094 C 309.601562 419.691406 310.140625 420.449219 309.695312 420.875 C 309.289062 421.265625 308.492188 420.894531 308.417969 421.082031 C 308.324219 421.359375 310.101562 421.710938 311.25 423.210938 C 311.878906 424.023438 311.789062 424.507812 312.453125 424.914062 C 313.046875 425.265625 314.011719 425.414062 314.660156 424.914062 C 315.25 424.453125 315.289062 423.636719 315.289062 423.210938 C 315.289062 423.007812 315.308594 422.171875 314.660156 421.082031 C 313.75 419.542969 312.769531 419.5625 312.324219 418.394531 C 312.175781 417.96875 312.046875 417.320312 312.324219 416.339844 Z M 294.195312 430.082031 C 294.75 432.042969 296.601562 432.859375 296.75 432.914062 C 298.417969 433.597656 300.863281 433.359375 301.363281 432.136719 C 301.695312 431.304688 301.101562 430.136719 300.4375 429.507812 C 300.007812 429.097656 299.566406 428.933594 299.230469 428.804688 C 297.75 428.230469 297.082031 428.839844 296.195312 428.304688 C 295.195312 427.730469 295.25 426.5625 294.84375 426.597656 C 294.324219 426.65625 293.730469 428.46875 294.195312 430.082031 Z M 299.230469 423.507812 C 299.75 422.5625 300.027344 422.082031 299.9375 421.453125 C 299.804688 420.507812 298.917969 419.949219 298.511719 419.671875 C 298.175781 419.449219 297.066406 418.726562 295.75 419.097656 C 295.65625 419.117188 294.15625 419.5625 293.917969 420.65625 C 293.730469 421.453125 294.4375 421.746094 295.046875 423.285156 C 295.769531 425.082031 295.230469 425.785156 296.046875 426.746094 C 296.824219 427.671875 298.121094 428.042969 298.378906 427.746094 C 298.640625 427.46875 297.789062 426.820312 297.878906 425.765625 C 297.953125 425.007812 298.433594 424.914062 299.230469 423.507812 Z M 302.621094 428.027344 C 304.25 427.65625 305.101562 426.007812 305.304688 424.914062 C 305.417969 424.359375 305.289062 423.65625 305.027344 422.230469 C 304.714844 420.46875 304.527344 419.582031 303.972656 418.691406 C 303.695312 418.265625 302.789062 416.839844 301.84375 416.988281 C 301.027344 417.117188 300.621094 418.304688 300.566406 418.46875 C 299.824219 420.597656 301.714844 421.894531 301.066406 423.636719 C 300.507812 425.117188 298.789062 425.082031 298.804688 426.042969 C 298.804688 427.101562 300.824219 428.433594 302.621094 428.027344 Z M 293.34375 428.027344 C 293.398438 427.710938 293.546875 426.914062 293.769531 426.320312 C 294.140625 425.339844 294.546875 425.359375 294.621094 424.691406 C 294.675781 424.171875 294.492188 423.46875 294.046875 423.265625 C 293.582031 423.0625 293.285156 423.582031 292.566406 423.617188 C 291.378906 423.691406 290.933594 422.433594 290.082031 422.5625 C 289.289062 422.671875 288.730469 423.894531 288.601562 424.765625 C 288.304688 426.65625 289.714844 428.691406 291.289062 429.082031 C 291.789062 429.210938 292.730469 429.285156 293.121094 428.804688 C 293.25 428.65625 293.25 428.527344 293.34375 428.027344 Z M 305.25 433.0625 C 307.324219 433.15625 308.789062 430.859375 309.992188 428.953125 C 310.9375 427.46875 311.453125 426.65625 311.269531 425.617188 C 310.863281 423.414062 307.527344 421.953125 306.527344 422.710938 C 306.046875 423.082031 306.453125 423.691406 305.953125 425.339844 C 305.695312 426.210938 305.269531 427.636719 304.121094 428.320312 C 302.953125 429.007812 301.953125 428.414062 301.566406 429.027344 C 301.140625 429.730469 302.082031 431.0625 302.621094 431.65625 C 302.917969 431.953125 303.898438 433.007812 305.25 433.0625 Z M 319.695312 414.710938 C 316.824219 415.171875 315.175781 413.359375 314.234375 414.765625 C 313.234375 416.265625 312.601562 418.082031 313.234375 418.582031 C 313.734375 418.988281 314.734375 421.007812 316.546875 421.285156 C 317.324219 421.394531 317.9375 421.15625 318.195312 421.0625 C 325.066406 418.671875 327.546875 417.820312 327.398438 417.097656 C 327.324219 416.710938 326.585938 416.839844 325.769531 415.894531 C 325.601562 415.710938 325.179688 415.191406 324.992188 414.414062 C 324.789062 413.5625 325.101562 413.226562 324.898438 413.007812 C 324.417969 412.449219 322.492188 414.265625 319.695312 414.710938 Z M 333.734375 405.859375 C 333.382812 407.488281 331.398438 407.5625 329.269531 408.652344 C 327.140625 409.746094 326.789062 408.988281 325.9375 409.839844 C 325.085938 410.691406 326.085938 414.023438 328.066406 415.191406 C 330.046875 416.359375 331.605469 414.582031 331.695312 413.246094 C 331.789062 411.914062 334.585938 409.414062 336.34375 407.152344 C 338.105469 404.894531 339.03125 403.542969 338.898438 402.652344 C 338.75 401.765625 337.621094 401.339844 336.640625 402.265625 C 335.660156 403.191406 335.085938 403.042969 335.085938 403.042969 C 336.066406 404.152344 334.085938 404.226562 333.734375 405.859375 Z M 334.992188 398.339844 C 333.714844 397.320312 333.4375 395.597656 332.511719 394.949219 C 331.585938 394.300781 331.234375 396.375 332.511719 398.636719 C 333.789062 400.894531 334.640625 401.839844 334.640625 401.839844 C 339.179688 400.636719 336.269531 399.339844 334.992188 398.339844 Z M 307.511719 391.765625 C 307.863281 393.46875 307.65625 397.855469 307.9375 400.800781 C 308.214844 403.746094 306.304688 411.597656 305.640625 413.433594 C 304.972656 415.265625 310.695312 415.5625 311.972656 414.488281 C 313.25 413.433594 310.417969 407.042969 310.195312 403.433594 C 309.972656 399.820312 312.953125 393.929688 314.660156 391.414062 C 316.363281 388.875 311.972656 390.339844 309.917969 388.28125 C 307.863281 386.226562 306.878906 389.28125 306.878906 389.28125 C 306.140625 390.523438 307.160156 390.0625 307.511719 391.765625 Z M 326.992188 385.710938 C 326.84375 384.523438 325.917969 383.726562 325.511719 383.339844 C 323.378906 381.28125 324.160156 378.949219 322.601562 378.726562 C 321.546875 378.578125 317.789062 378.800781 318.066406 380.28125 C 318.066406 380.28125 314.382812 382.058594 312.601562 382.5625 C 310.824219 383.0625 307.9375 383.746094 308.84375 385.484375 C 309.769531 387.226562 312.175781 386.800781 313.234375 388.078125 C 314.289062 389.355469 315.566406 388.503906 316.140625 386.949219 C 316.714844 385.394531 319.324219 382.28125 320.457031 382.839844 C 321.585938 383.414062 322.4375 382.984375 323.085938 384.746094 C 323.621094 386.207031 323.898438 388.617188 324.308594 388.617188 C 324.398438 388.617188 324.4375 388.488281 324.566406 388.28125 C 325.308594 387.191406 326.585938 387.355469 326.9375 386.523438 C 327.066406 386.265625 327.03125 386.042969 326.992188 385.710938 Z M 331.53125 393.523438 C 331.53125 393.523438 329.898438 389.636719 328.695312 387.929688 C 327.492188 386.226562 323.234375 389.707031 325.011719 390.414062 C 326.789062 391.117188 331.03125 395.226562 331.53125 393.523438 Z M 299.9375 402.671875 C 300.4375 404.507812 299.730469 411.246094 299.730469 413.226562 C 299.730469 415.210938 301.15625 415.433594 303.195312 415.007812 C 305.230469 414.582031 304.898438 411.542969 304.621094 409.839844 C 304.34375 408.136719 302.789062 399.859375 303.195312 396.542969 C 303.601562 393.226562 304.824219 391.636719 305.527344 390.207031 C 306.230469 388.78125 303.324219 387.171875 301.917969 386.671875 C 300.507812 386.171875 299.289062 386.523438 297.640625 387.097656 C 295.992188 387.671875 297.304688 391.914062 297.304688 391.914062 C 299.230469 393.246094 299.4375 400.820312 299.9375 402.671875 Z M 300.289062 375.46875 C 300.140625 379.300781 297.804688 381.839844 297.65625 383.46875 C 297.507812 385.097656 298.363281 385.671875 300.289062 385.097656 C 302.214844 384.523438 302.621094 385.949219 304.898438 386.042969 C 307.175781 386.132812 305.953125 383.265625 305.101562 381.839844 C 304.25 380.414062 304.472656 376.097656 304.601562 372.207031 C 304.730469 368.320312 305.453125 367.542969 305.972656 365.96875 C 306.492188 364.394531 305.804688 363.335938 303.898438 363.484375 C 301.992188 363.632812 302.917969 363.558594 300.933594 363.207031 C 298.972656 362.855469 300.4375 367.097656 300.4375 367.097656 C 301.714844 368.523438 300.4375 371.632812 300.289062 375.46875 Z M 301.84375 355.207031 C 301.730469 356.171875 301.363281 356.707031 300.933594 357.613281 C 300.214844 359.113281 299.546875 360.542969 300.027344 361.226562 C 300.269531 361.542969 300.714844 361.726562 301.492188 361.726562 C 303.972656 361.726562 302.695312 362.78125 305.027344 362.503906 C 307.363281 362.226562 305.953125 360.449219 305.527344 358.132812 C 305.101562 355.820312 305.734375 356.132812 305.972656 353.929688 C 306.195312 351.726562 307.378906 350.039062 305.324219 350.171875 C 303.269531 350.300781 304.046875 349.820312 301.824219 349.820312 C 299.601562 349.820312 301.824219 353.929688 301.824219 353.929688 C 301.863281 354.226562 301.898438 354.671875 301.84375 355.207031 Z M 305.675781 346.132812 C 305.101562 345.152344 305.378906 342.746094 304.398438 341.039062 C 303.417969 339.335938 303.546875 344.652344 302.195312 346.929688 C 300.84375 349.207031 303.546875 348.761719 303.546875 348.761719 C 306.230469 350.097656 306.230469 347.132812 305.675781 346.132812 Z M 291.007812 401.246094 C 292.84375 405.636719 293.214844 410.023438 293.769531 412.800781 C 294.34375 415.5625 295.25 417.46875 296.398438 418.320312 C 297.546875 419.171875 297.527344 417.894531 298.601562 416.0625 C 299.65625 414.230469 297.25 410.042969 296.195312 408.414062 C 295.140625 406.785156 293.621094 398.414062 293.695312 394.597656 C 293.769531 390.78125 291.289062 391.488281 289.507812 391.488281 C 287.730469 391.488281 287.398438 393.542969 287.398438 393.542969 C 286.695312 395.003906 289.15625 396.859375 291.007812 401.246094 Z M 285.34375 381.410156 C 285.695312 383.320312 285.34375 387.855469 286.195312 389.988281 C 287.046875 392.117188 290.507812 390.136719 291.859375 389.636719 C 293.214844 389.136719 290.433594 383.820312 289.101562 381.5625 C 287.75 379.300781 287.675781 375.042969 287.675781 372.523438 C 287.675781 370.003906 287.046875 370.300781 285.34375 371.078125 C 283.640625 371.855469 284.714844 371.003906 282.582031 371.078125 C 280.453125 371.152344 282.582031 373.984375 282.582031 373.984375 C 283.640625 374.894531 284.992188 379.503906 285.34375 381.410156 Z M 280.65625 368.246094 C 280.582031 370.800781 284.972656 369.800781 285.972656 369.632812 C 286.972656 369.46875 287.175781 367.523438 285.972656 366.820312 C 284.769531 366.117188 284.546875 362.207031 284.417969 360.523438 C 284.285156 358.835938 284.417969 358.394531 283.492188 358.96875 C 282.566406 359.542969 281.933594 358.761719 280.378906 358.691406 C 278.824219 358.613281 280.378906 360.523438 280.378906 360.523438 C 281.507812 361.375 280.730469 365.6875 280.65625 368.246094 Z M 282.933594 357.761719 C 284.285156 357.761719 284.066406 355.28125 282.359375 354.078125 C 280.65625 352.875 281.15625 349.964844 280.027344 348.890625 C 278.898438 347.816406 279.824219 352.726562 279.433594 355.261719 C 279.046875 357.800781 280.027344 357.746094 280.027344 357.746094 C 281.027344 358.613281 281.582031 357.761719 282.933594 357.761719 Z M 293.566406 418.320312 C 294.695312 418.117188 294.695312 417.265625 293.566406 415.765625 C 292.433594 414.285156 289.378906 408.96875 288.324219 406.636719 C 287.269531 404.300781 286.121094 400.042969 285.769531 397.707031 C 285.417969 395.375 283.546875 394.597656 281.378906 396.859375 C 279.210938 399.117188 281.027344 401.246094 283.710938 404.300781 C 286.398438 407.359375 287.601562 413.582031 287.972656 417.117188 C 288.324219 420.65625 290.527344 420.65625 290.527344 420.65625 C 291.769531 421.210938 292.417969 418.542969 293.566406 418.320312 Z M 278.972656 394.800781 C 278.769531 396.003906 280.027344 397.136719 280.675781 396.152344 C 281.324219 395.171875 282.878906 394.800781 284.082031 394.449219 C 285.285156 394.097656 284.933594 392.246094 283.378906 391.691406 C 281.824219 391.132812 281.046875 390.207031 278.84375 387.855469 C 276.636719 385.523438 276.359375 384.875 274.804688 386.042969 C 273.25 387.207031 274.804688 387.855469 274.804688 387.855469 C 276.136719 389.207031 279.175781 393.597656 278.972656 394.800781 Z M 271.304688 383.394531 C 271.730469 385.597656 272.230469 386.503906 273.433594 385.800781 C 274.636719 385.097656 273.933594 384.523438 276.339844 384.097656 C 278.75 383.671875 273.15625 379.355469 271.953125 378.503906 C 270.75 377.652344 271.675781 376.597656 270.898438 375.671875 C 270.121094 374.746094 269.84375 377.226562 268.5625 377.800781 C 267.285156 378.375 268.839844 379.078125 268.839844 379.078125 C 270.472656 380.636719 270.878906 381.207031 271.304688 383.394531 Z M 267.136719 376.949219 C 267.136719 376.949219 266.5625 376.800781 266.359375 374.894531 C 266.15625 372.984375 263.101562 371.28125 264.582031 369.929688 C 266.0625 368.578125 265.859375 372.132812 267.136719 372.765625 C 268.417969 373.394531 270.898438 374.894531 269.472656 375.597656 C 268.046875 376.300781 268.769531 377.671875 267.136719 376.949219 " fill-opacity="1" fill-rule="nonzero"/></g><g clip-path="url(#8eab3b6c80)"><path fill="#ffffff" d="M 325.363281 417.433594 C 323.640625 417.65625 321.9375 418.117188 320.234375 418.488281 C 318.457031 418.859375 316.675781 419.097656 315.046875 418.191406 C 316.363281 418.394531 317.734375 418.359375 319.046875 418.285156 C 319.140625 418.285156 319.140625 418.136719 319.046875 418.136719 C 317.417969 418.117188 315.84375 417.839844 314.234375 417.691406 C 314.027344 417.671875 314.011719 417.988281 314.195312 418.023438 C 314.289062 418.042969 314.382812 418.0625 314.472656 418.082031 C 314.417969 418.171875 314.4375 418.304688 314.527344 418.394531 C 315.863281 419.414062 317.601562 419.375 319.175781 419.0625 C 321.234375 418.65625 323.378906 418.210938 325.363281 417.5625 C 325.457031 417.523438 325.4375 417.414062 325.363281 417.433594 Z M 337.695312 402.636719 C 337.621094 402.542969 337.492188 402.652344 337.546875 402.746094 C 338.234375 403.949219 336.25 405.507812 335.492188 406.226562 C 334.695312 406.988281 333.808594 407.65625 333.046875 408.46875 C 332.417969 409.136719 331.863281 409.859375 331.417969 410.65625 C 330.917969 411.542969 330.546875 413.523438 329.289062 413.433594 C 329.066406 413.414062 329.011719 413.800781 329.234375 413.839844 C 330.269531 414.007812 330.734375 413.171875 331.085938 412.339844 C 331.714844 410.785156 332.53125 409.433594 333.734375 408.226562 C 334.824219 407.117188 336.03125 406.117188 337.066406 404.949219 C 337.605469 404.320312 338.34375 403.414062 337.695312 402.636719 Z M 333.714844 398.355469 C 334.066406 399.042969 334.753906 399.636719 335.34375 400.097656 C 335.4375 400.171875 335.605469 400.078125 335.53125 399.949219 C 335.160156 399.300781 334.382812 398.96875 333.972656 398.339844 C 333.457031 397.5625 333.179688 396.617188 332.769531 395.765625 C 332.734375 395.691406 332.605469 395.746094 332.640625 395.820312 C 332.972656 396.671875 333.308594 397.542969 333.714844 398.355469 Z M 330.824219 392.988281 C 330.957031 393.191406 331.25 393.003906 331.140625 392.800781 C 330.511719 391.652344 329.808594 390.414062 329.011719 389.375 C 328.511719 388.726562 327.789062 388.171875 326.9375 388.449219 C 326.863281 388.46875 326.882812 388.578125 326.957031 388.578125 C 328.195312 388.5625 328.769531 389.523438 329.324219 390.46875 C 329.824219 391.300781 330.289062 392.171875 330.824219 392.988281 Z M 321.140625 379.914062 C 319.546875 379.78125 318.308594 381.28125 317.046875 382.003906 C 315.175781 383.097656 313.214844 383.617188 311.085938 383.839844 C 310.953125 383.855469 310.9375 384.0625 311.085938 384.042969 C 312.660156 384.023438 314.195312 383.617188 315.640625 383.042969 C 317.046875 382.488281 318.140625 381.578125 319.417969 380.78125 C 320.511719 380.097656 321.84375 379.929688 322.4375 381.320312 C 322.640625 381.820312 322.824219 382.28125 323.140625 382.726562 C 323.9375 383.855469 325.085938 384.746094 325.34375 386.171875 C 325.382812 386.394531 325.734375 386.300781 325.695312 386.078125 C 325.4375 384.617188 324.269531 383.707031 323.457031 382.542969 C 322.734375 381.542969 322.660156 380.023438 321.140625 379.914062 Z M 309.992188 395.488281 C 309.992188 395.636719 310.195312 395.652344 310.25 395.523438 C 310.714844 394.171875 310.65625 392.414062 310.417969 391.023438 C 310.398438 390.929688 310.269531 390.96875 310.269531 391.042969 C 310.289062 391.78125 310.324219 392.523438 310.269531 393.265625 C 310.195312 394.023438 310.027344 394.746094 309.992188 395.488281 Z M 307.511719 413.339844 C 308.417969 409.152344 309.085938 404.894531 309.4375 400.636719 C 309.601562 398.578125 309.75 396.503906 309.714844 394.429688 C 309.695312 393.597656 309.621094 392.765625 309.398438 391.96875 C 309.304688 391.617188 309.195312 391.265625 309.046875 390.929688 C 308.917969 390.652344 307.953125 389.339844 308.527344 389.117188 C 308.65625 389.0625 308.601562 388.855469 308.472656 388.914062 C 308.15625 389.023438 308.011719 389.246094 308.046875 389.597656 C 308.066406 389.929688 308.34375 390.28125 308.511719 390.5625 C 308.789062 391.078125 309.011719 391.617188 309.140625 392.191406 C 309.660156 394.339844 309.34375 396.652344 309.175781 398.820312 C 308.824219 403.652344 308.140625 408.46875 307.101562 413.210938 C 307.011719 413.488281 307.4375 413.617188 307.511719 413.339844 Z M 310.566406 425.804688 C 309.972656 427.136719 309.453125 428.46875 308.695312 429.710938 C 307.878906 431.027344 305.84375 433.0625 304.195312 431.691406 C 304.121094 431.617188 303.992188 431.730469 304.066406 431.820312 C 305.140625 432.859375 306.863281 432.082031 307.824219 431.246094 C 309.289062 429.953125 310.289062 427.765625 310.898438 425.949219 C 310.953125 425.746094 310.640625 425.617188 310.566406 425.804688 Z M 298.25 432.171875 C 297.546875 431.839844 296.898438 431.617188 296.304688 431.0625 C 295.675781 430.488281 295.324219 429.820312 295.007812 429.042969 C 294.972656 428.96875 294.859375 428.988281 294.878906 429.082031 C 295.140625 430.597656 296.601562 432.265625 298.175781 432.46875 C 298.324219 432.488281 298.378906 432.246094 298.25 432.171875 Z M 289.953125 424.117188 C 289.972656 424.042969 289.859375 423.988281 289.824219 424.0625 C 289.027344 425.527344 290.433594 427.5625 291.492188 428.488281 C 291.675781 428.65625 291.953125 428.378906 291.769531 428.210938 C 290.546875 427.15625 289.675781 425.765625 289.953125 424.117188 Z M 287.101562 407.394531 C 287.214844 407.617188 287.546875 407.414062 287.433594 407.191406 C 286.269531 404.597656 284.675781 402.117188 282.878906 399.914062 C 282.824219 399.839844 282.675781 399.929688 282.730469 400.023438 C 284.378906 402.394531 285.785156 404.839844 287.101562 407.394531 Z M 290.546875 419.582031 C 290.804688 419.65625 290.933594 419.246094 290.65625 419.171875 C 288.898438 418.65625 288.972656 415.582031 288.730469 414.136719 C 288.417969 412.210938 288.046875 410.265625 287.359375 408.414062 C 286.0625 404.949219 283.210938 402.507812 281.695312 399.171875 C 281.636719 399.042969 281.433594 399.136719 281.472656 399.265625 C 282.101562 401.078125 283.398438 402.597656 284.527344 404.117188 C 285.824219 405.894531 286.804688 407.746094 287.417969 409.875 C 287.992188 411.875 288.285156 413.933594 288.601562 415.988281 C 288.824219 417.320312 289.007812 419.15625 290.546875 419.582031 Z M 280.398438 395.097656 C 280.304688 395.339844 280.027344 394.765625 280.007812 394.746094 C 279.917969 394.542969 279.878906 394.246094 279.824219 394.023438 C 279.730469 393.691406 279.636719 393.355469 279.507812 393.023438 C 279.378906 392.691406 279.230469 392.375 279.046875 392.042969 C 278.785156 390.523438 277.992188 389.171875 277.027344 387.984375 C 276.953125 387.894531 276.804688 388.023438 276.878906 388.097656 C 277.453125 388.875 277.859375 389.707031 278.175781 390.578125 C 277.378906 389.355469 276.359375 387.875 275.15625 387.097656 C 275.121094 387.058594 275.046875 387.136719 275.082031 387.171875 C 275.710938 388.097656 276.582031 388.855469 277.230469 389.785156 C 277.75 390.503906 278.230469 391.28125 278.636719 392.078125 C 278.675781 392.207031 278.710938 392.355469 278.75 392.488281 C 278.769531 392.5625 278.84375 392.617188 278.898438 392.617188 C 278.933594 392.707031 278.988281 392.800781 279.027344 392.914062 C 279.25 393.449219 279.378906 393.988281 279.527344 394.5625 C 279.601562 394.875 279.636719 395.300781 279.898438 395.523438 C 280.25 395.839844 280.65625 395.617188 280.75 395.191406 C 280.804688 394.96875 280.472656 394.875 280.398438 395.097656 Z M 273.15625 384.429688 C 272.472656 384.578125 272.230469 383.839844 272.101562 383.152344 C 272.582031 381.765625 271.769531 380.097656 270.859375 379.0625 C 270.769531 378.96875 270.636719 379.097656 270.710938 379.207031 C 271.175781 379.78125 271.488281 380.449219 271.695312 381.171875 C 271.75 381.410156 271.785156 381.636719 271.804688 381.875 C 271.675781 381.523438 271.507812 381.191406 271.324219 380.855469 C 271.0625 380.355469 270.769531 379.835938 270.414062 379.394531 C 270.175781 379.117188 268.988281 378.300781 269.285156 377.910156 C 269.34375 377.839844 269.25 377.726562 269.175781 377.800781 C 268.953125 378.058594 268.953125 378.339844 269.15625 378.632812 C 269.488281 379.097656 270.046875 379.246094 270.359375 379.765625 C 270.636719 380.191406 270.878906 380.707031 271.101562 381.171875 C 271.417969 381.855469 271.636719 382.503906 271.730469 383.246094 C 271.769531 383.578125 271.785156 383.929688 271.953125 384.246094 C 272.230469 384.726562 272.695312 384.988281 273.230469 384.800781 C 273.472656 384.710938 273.378906 384.394531 273.15625 384.429688 Z M 266.878906 374.429688 C 266.785156 374.003906 266.804688 373.578125 266.582031 373.207031 C 266.359375 372.855469 265.972656 372.617188 265.675781 372.300781 C 265.230469 371.820312 264.988281 371.28125 264.730469 370.691406 C 264.675781 370.542969 264.453125 370.652344 264.488281 370.800781 C 264.601562 371.355469 264.878906 371.855469 265.230469 372.300781 C 265.5625 372.726562 266.046875 373.003906 266.304688 373.503906 C 266.5625 374.003906 266.527344 374.597656 266.75 375.132812 C 266.972656 375.707031 267.339844 376.171875 267.804688 376.5625 C 267.972656 376.691406 268.210938 376.46875 268.046875 376.320312 C 267.472656 375.78125 267.0625 375.171875 266.878906 374.429688 Z M 304.195312 348.300781 C 304.640625 347.503906 304.566406 346.484375 304.511719 345.597656 C 304.453125 344.464844 304.324219 343.355469 304.34375 342.226562 C 304.34375 342.132812 304.175781 342.097656 304.160156 342.207031 C 304.011719 343.167969 304.101562 344.132812 304.140625 345.097656 C 304.195312 346.1875 303.992188 347.152344 303.917969 348.226562 C 303.917969 348.375 304.121094 348.429688 304.195312 348.300781 Z M 303.304688 353.523438 C 303.230469 354.300781 303.289062 355.039062 303.121094 355.800781 C 302.972656 356.46875 302.65625 357.078125 302.4375 357.726562 C 302.378906 357.875 302.585938 357.929688 302.675781 357.820312 C 303.492188 356.746094 303.878906 354.78125 303.453125 353.503906 C 303.417969 353.429688 303.324219 353.449219 303.304688 353.523438 Z M 301.34375 360.835938 C 301.433594 360.910156 301.621094 360.855469 301.566406 360.707031 C 301.011719 358.949219 302.714844 357.46875 303.046875 355.78125 C 303.175781 355.113281 303.066406 354.523438 302.804688 353.910156 C 302.398438 352.929688 301.582031 351.835938 302.417969 350.835938 C 302.492188 350.746094 302.378906 350.632812 302.289062 350.707031 C 301.84375 351.152344 301.75 351.761719 301.84375 352.375 C 302.046875 353.671875 302.972656 354.558594 302.601562 355.984375 C 302.304688 357.097656 301.566406 358.023438 301.15625 359.097656 C 300.953125 359.652344 300.789062 360.429688 301.34375 360.835938 Z M 302.917969 370.929688 C 302.75 371.984375 302.640625 373.058594 302.453125 374.117188 C 302.289062 375.058594 302.046875 376.023438 301.9375 376.96875 C 301.917969 377.132812 302.175781 377.152344 302.214844 377.003906 C 302.769531 375.132812 303.007812 372.894531 303.085938 370.949219 C 303.101562 370.855469 302.9375 370.835938 302.917969 370.929688 Z M 301.511719 413.65625 C 301.011719 413.46875 300.730469 412.765625 300.730469 412.265625 C 300.730469 411.988281 300.789062 411.691406 300.804688 411.414062 C 300.863281 410.875 300.917969 410.320312 300.972656 409.785156 C 301.066406 408.765625 301.140625 407.726562 301.195312 406.691406 C 301.304688 404.507812 301.324219 402.320312 301.25 400.152344 C 301.214844 399.0625 301.15625 398.003906 300.933594 396.96875 C 301.027344 396.0625 300.863281 395.117188 300.527344 394.265625 C 300.085938 393.117188 299.195312 392.152344 299.363281 390.839844 C 299.378906 390.746094 299.195312 390.710938 299.175781 390.820312 C 299.027344 391.710938 299.324219 392.488281 299.695312 393.300781 C 300.027344 394.023438 300.25 394.671875 300.398438 395.339844 C 300.34375 395.226562 300.289062 395.117188 300.230469 395.003906 C 299.789062 394.136719 299.289062 393.320312 298.953125 392.394531 C 298.566406 391.359375 298.453125 390.265625 298.453125 389.152344 C 298.453125 389.023438 298.25 389.023438 298.25 389.152344 C 298.101562 391.152344 298.714844 392.914062 299.640625 394.636719 C 300.066406 395.414062 300.378906 396.171875 300.582031 396.988281 C 300.582031 397.0625 300.582031 397.152344 300.582031 397.226562 C 300.582031 397.285156 300.621094 397.320312 300.65625 397.355469 C 300.714844 397.617188 300.75 397.894531 300.769531 398.171875 C 300.863281 399.429688 300.878906 400.691406 300.898438 401.949219 C 300.917969 404.375 300.824219 406.800781 300.621094 409.210938 C 300.527344 410.285156 300.214844 411.507812 300.34375 412.582031 C 300.417969 413.265625 300.75 413.785156 301.433594 413.96875 C 301.660156 414.082031 301.75 413.726562 301.511719 413.65625 Z M 299.363281 383.449219 C 299.824219 381.894531 300.527344 380.429688 301.046875 378.894531 C 301.546875 377.429688 301.898438 375.914062 302.101562 374.375 C 302.527344 371.265625 302.4375 367.949219 301.527344 364.910156 C 301.492188 364.800781 301.324219 364.835938 301.34375 364.96875 C 301.972656 368.246094 302.195312 371.503906 301.660156 374.820312 C 301.417969 376.339844 301.027344 377.820312 300.507812 379.265625 C 300.066406 380.503906 298.972656 382.058594 299.082031 383.429688 C 299.101562 383.558594 299.324219 383.617188 299.363281 383.449219 Z M 281.25 356.652344 C 280.25 354.558594 280.210938 352.410156 280.359375 350.152344 C 280.359375 350.058594 280.210938 350.058594 280.210938 350.152344 C 280.046875 352.375 279.769531 354.835938 280.898438 356.875 C 281.027344 357.097656 281.378906 356.894531 281.25 356.652344 Z M 282.710938 366.410156 C 282.75 366.023438 282.695312 365.632812 282.695312 365.265625 C 282.695312 364.875 282.730469 364.484375 282.710938 364.113281 C 282.710938 364.003906 282.566406 363.984375 282.527344 364.097656 C 282.285156 364.78125 282.214844 365.761719 282.359375 366.484375 C 282.417969 366.671875 282.710938 366.617188 282.710938 366.410156 Z M 281.398438 365.132812 C 281.304688 366.28125 281.082031 367.929688 282.046875 368.78125 C 282.25 368.949219 282.527344 368.691406 282.34375 368.484375 C 281.101562 367.246094 281.898438 364.464844 282.066406 362.929688 C 282.195312 361.671875 281.75 360.761719 280.972656 359.800781 C 280.917969 359.726562 280.785156 359.820312 280.824219 359.910156 C 281.34375 360.761719 281.804688 361.542969 281.730469 362.578125 C 281.675781 363.429688 281.453125 364.28125 281.398438 365.132812 Z M 292.785156 402.914062 C 292.824219 403.136719 293.195312 403.078125 293.175781 402.859375 C 293.046875 401.597656 292.695312 400.375 292.15625 399.210938 C 291.546875 397.855469 290.378906 396.691406 290.15625 395.191406 C 290.136719 395.097656 289.992188 395.117188 290.007812 395.207031 C 290.136719 396.449219 290.859375 397.449219 291.417969 398.523438 C 292.15625 399.929688 292.546875 401.375 292.785156 402.914062 Z M 296.363281 416.171875 C 296.566406 416.285156 296.769531 416.023438 296.601562 415.859375 C 295.25 414.5625 294.789062 413.0625 294.453125 411.265625 C 294.101562 409.265625 293.714844 407.285156 293.175781 405.320312 C 292.640625 403.355469 291.972656 401.433594 291.195312 399.542969 C 290.824219 398.636719 290.417969 397.746094 289.992188 396.875 C 289.433594 395.746094 288.804688 394.671875 288.804688 393.375 C 288.804688 393.265625 288.621094 393.265625 288.621094 393.375 C 288.527344 395.488281 289.917969 397.449219 290.695312 399.339844 C 291.582031 401.488281 292.324219 403.691406 292.898438 405.933594 C 293.433594 408.007812 293.75 410.097656 294.175781 412.191406 C 294.492188 413.597656 294.992188 415.375 296.363281 416.171875 Z M 287.066406 386.597656 C 287.082031 386.820312 287.398438 386.820312 287.417969 386.597656 C 287.507812 383.785156 287.472656 380.855469 286.378906 378.246094 C 286.359375 378.191406 286.25 378.207031 286.269531 378.28125 C 287.304688 380.988281 286.917969 383.765625 287.066406 386.597656 Z M 283.546875 373.523438 C 283.304688 372.96875 283.082031 372.503906 283.285156 371.914062 C 283.324219 371.78125 283.527344 371.839844 283.492188 371.96875 C 283.230469 372.855469 284.066406 373.984375 284.398438 374.78125 C 284.675781 375.449219 284.933594 376.132812 285.175781 376.820312 C 285.675781 378.300781 286.0625 379.800781 286.34375 381.339844 C 286.601562 382.839844 286.769531 384.339844 286.804688 385.855469 C 286.84375 387.191406 286.527344 389.117188 287.785156 389.988281 C 288.007812 390.136719 287.804688 390.523438 287.566406 390.355469 C 286.566406 389.671875 286.398438 388.488281 286.378906 387.339844 C 286.34375 385.449219 286.304688 383.617188 286.007812 381.746094 C 285.730469 379.875 285.269531 378.023438 284.65625 376.246094 C 284.34375 375.320312 283.953125 374.414062 283.546875 373.523438 " fill-opacity="1" fill-rule="nonzero"/></g><g fill="#ffffff" fill-opacity="1"><g transform="translate(362.654282, 416.249999)"><g><path d="M 1.59375 0 L 1.59375 -18 L 3.5625 -18 L 3.5625 -16.40625 L 3.953125 -16.40625 C 4.253906 -17.007812 4.597656 -17.457031 4.984375 -17.75 C 5.378906 -18.050781 5.925781 -18.203125 6.625 -18.203125 C 7.34375 -18.203125 7.914062 -18.050781 8.34375 -17.75 C 8.78125 -17.457031 9.085938 -16.972656 9.265625 -16.296875 L 9.65625 -16.296875 C 9.957031 -16.910156 10.328125 -17.378906 10.765625 -17.703125 C 11.210938 -18.035156 11.785156 -18.203125 12.484375 -18.203125 C 13.421875 -18.203125 14.117188 -17.925781 14.578125 -17.375 C 15.035156 -16.832031 15.273438 -15.921875 15.296875 -14.640625 L 15.328125 0 L 13.34375 0 L 13.3125 -14.796875 C 13.300781 -15.453125 13.175781 -15.925781 12.9375 -16.21875 C 12.707031 -16.507812 12.328125 -16.65625 11.796875 -16.65625 C 10.671875 -16.65625 9.898438 -16.035156 9.484375 -14.796875 L 9.484375 0 L 7.5 0 L 7.46875 -14.796875 C 7.46875 -15.453125 7.347656 -15.925781 7.109375 -16.21875 C 6.867188 -16.507812 6.476562 -16.65625 5.9375 -16.65625 C 4.738281 -16.65625 3.945312 -16.039062 3.5625 -14.8125 L 3.5625 0 Z M 1.59375 0 "/></g></g></g><g fill="#ffffff" fill-opacity="1"><g transform="translate(379.604263, 416.249999)"><g><path d="M 1.203125 -21.59375 L 1.203125 -24 L 4.34375 -24 L 4.34375 -21.59375 Z M 1.828125 0 L 1.828125 -18 L 3.8125 -18 L 3.8125 0 Z M 1.828125 0 "/></g></g></g><g fill="#ffffff" fill-opacity="1"><g transform="translate(385.154258, 416.249999)"><g><path d="M 1.59375 0 L 1.59375 -18 L 3.5625 -18 L 3.5625 -16.296875 L 3.984375 -16.296875 C 4.148438 -16.953125 4.414062 -17.40625 4.78125 -17.65625 C 5.15625 -17.90625 5.648438 -18.03125 6.265625 -18.03125 C 6.648438 -18.03125 6.960938 -18.019531 7.203125 -18 L 7.203125 -16.40625 L 6.296875 -16.40625 C 5.441406 -16.40625 4.8125 -16.25 4.40625 -15.9375 C 4.007812 -15.632812 3.726562 -15.132812 3.5625 -14.4375 L 3.5625 0 Z M 1.59375 0 "/></g></g></g><g fill="#ffffff" fill-opacity="1"><g transform="translate(392.954253, 416.249999)"><g><path d="M 1.59375 0 L 1.59375 -18 L 3.5625 -18 L 3.5625 -16.40625 L 3.953125 -16.40625 C 4.253906 -17.007812 4.597656 -17.457031 4.984375 -17.75 C 5.378906 -18.050781 5.925781 -18.203125 6.625 -18.203125 C 7.34375 -18.203125 7.914062 -18.050781 8.34375 -17.75 C 8.78125 -17.457031 9.085938 -16.972656 9.265625 -16.296875 L 9.65625 -16.296875 C 9.957031 -16.910156 10.328125 -17.378906 10.765625 -17.703125 C 11.210938 -18.035156 11.785156 -18.203125 12.484375 -18.203125 C 13.421875 -18.203125 14.117188 -17.925781 14.578125 -17.375 C 15.035156 -16.832031 15.273438 -15.921875 15.296875 -14.640625 L 15.328125 0 L 13.34375 0 L 13.3125 -14.796875 C 13.300781 -15.453125 13.175781 -15.925781 12.9375 -16.21875 C 12.707031 -16.507812 12.328125 -16.65625 11.796875 -16.65625 C 10.671875 -16.65625 9.898438 -16.035156 9.484375 -14.796875 L 9.484375 0 L 7.5 0 L 7.46875 -14.796875 C 7.46875 -15.453125 7.347656 -15.925781 7.109375 -16.21875 C 6.867188 -16.507812 6.476562 -16.65625 5.9375 -16.65625 C 4.738281 -16.65625 3.945312 -16.039062 3.5625 -14.8125 L 3.5625 0 Z M 1.59375 0 "/></g></g></g><g fill="#ffffff" fill-opacity="1"><g transform="translate(409.904235, 416.249999)"><g/></g></g><g fill="#ffffff" fill-opacity="1"><g transform="translate(416.114233, 416.249999)"><g><path d="M 2.609375 0 L 0.984375 -24 L 3 -24 L 3.515625 -14.96875 L 4.171875 -1.796875 L 4.703125 -1.796875 L 5.484375 -14.96875 L 6.484375 -23.84375 L 9.59375 -23.84375 L 10.59375 -14.96875 L 11.40625 -1.796875 L 11.90625 -1.796875 L 12.59375 -14.96875 L 13.140625 -24 L 15.125 -24 L 13.46875 0 L 9.90625 0 L 9.15625 -7.859375 L 8.3125 -22.109375 L 7.765625 -22.109375 L 6.9375 -7.859375 L 6.1875 0 Z M 2.609375 0 "/></g></g></g><g fill="#ffffff" fill-opacity="1"><g transform="translate(432.134221, 416.249999)"><g><path d="M 1.59375 0 L 1.59375 -24 L 3.5625 -24 L 3.5625 0 Z M 1.59375 0 "/></g></g></g><g fill="#ffffff" fill-opacity="1"><g transform="translate(437.294213, 416.249999)"><g><path d="M 1.59375 0 L 1.59375 -24 L 5.21875 -24 C 6.582031 -24 7.570312 -23.695312 8.1875 -23.09375 C 8.8125 -22.5 9.144531 -21.507812 9.1875 -20.125 C 9.238281 -18.789062 9.265625 -17.585938 9.265625 -16.515625 C 9.265625 -15.441406 9.238281 -14.359375 9.1875 -13.265625 C 9.144531 -11.878906 8.8125 -10.882812 8.1875 -10.28125 C 7.570312 -9.6875 6.582031 -9.390625 5.21875 -9.390625 L 3.5625 -9.390625 L 3.5625 0 Z M 3.5625 -11.15625 L 5.21875 -11.15625 C 5.894531 -11.15625 6.390625 -11.320312 6.703125 -11.65625 C 7.015625 -11.988281 7.179688 -12.492188 7.203125 -13.171875 C 7.273438 -15.515625 7.273438 -17.863281 7.203125 -20.21875 C 7.179688 -20.894531 7.015625 -21.394531 6.703125 -21.71875 C 6.390625 -22.039062 5.894531 -22.203125 5.21875 -22.203125 L 3.5625 -22.203125 Z M 3.5625 -11.15625 "/></g></g></g></svg>